<svg width="689" height="578" viewBox="0 0 689 578" fill="none" xmlns="http://www.w3.org/2000/svg">
<g clip-path="url(#clip0_106_126)">
<path d="M653.327 574.815H24.8322V578.012H653.327V574.815Z" fill="#24242C"/>
<path opacity="0.41" d="M653.327 578H24.8321C24.8321 578 -83.9946 150.733 177.756 114.099C267.965 101.481 338.628 216.483 483.921 150.733C601.099 97.6981 749.2 286.822 653.327 578Z" fill="#FAB2C1"/>
<path opacity="0.41" d="M504.662 93.8324C510.662 54.3822 457.492 13.5822 385.902 2.70301C314.312 -8.17617 251.413 14.9852 245.413 54.4354C239.412 93.8855 292.583 134.686 364.172 145.565C435.762 156.444 498.661 133.283 504.662 93.8324Z" fill="#FAB2C1"/>
<path d="M140.471 573.985C133.622 573.985 126.383 573.839 119.094 573.46C74.3133 571.154 49.2858 561.404 44.6954 544.466C42.2659 535.521 43.5356 527.565 48.4679 520.828C62.0926 502.243 99.6338 500.461 101.233 500.388L101.612 509.345C101.27 509.357 66.7684 511.005 55.7075 526.125C52.4234 530.603 51.6543 535.838 53.3635 542.111C56.733 554.509 80.21 562.465 119.485 564.491C148.321 565.98 176.547 563.796 181.26 563.393C191.088 559.244 288.463 518.485 323.208 517.9L323.355 526.857C289.257 527.43 185.142 571.471 184.092 571.923L183.445 572.191L182.749 572.252C182.517 572.301 163.777 573.985 140.471 573.985Z" fill="#222F3E"/>
<g opacity="0.5">
<path opacity="0.5" d="M151.837 167.317L157.441 144.009L166.695 151.709L163.582 164.657L151.837 167.317Z" fill="#68A0D9"/>
<path opacity="0.5" d="M156.696 126.925L149.103 104.178L161.03 105.813L165.255 118.443L156.696 126.925Z" fill="#68A0D9"/>
<path opacity="0.5" d="M139.409 90.0834L120.913 74.8295L131.889 69.8994L142.168 78.3684L139.409 90.0834Z" fill="#68A0D9"/>
<path opacity="0.5" d="M105.225 68.008L81.443 64.8718L88.1455 54.8652L101.355 56.6103L105.225 68.008Z" fill="#68A0D9"/>
<path opacity="0.5" d="M64.5221 67.3979L42.6932 77.3313L43.0717 65.299L55.1948 59.7832L64.5221 67.3979Z" fill="#68A0D9"/>
<path opacity="0.5" d="M29.6789 88.436L16.4448 108.425L10.3772 98.0155L17.7389 86.9106L29.6789 88.436Z" fill="#68A0D9"/>
<path opacity="0.5" d="M11.2929 124.728L10.658 148.695L0 143.081L0.354047 129.768L11.2929 124.728Z" fill="#68A0D9"/>
<path opacity="0.5" d="M14.931 165.254L27.1029 185.914L15.0897 186.793L8.32617 175.322L14.931 165.254Z" fill="#68A0D9"/>
<path opacity="0.5" d="M39.5067 197.69L60.774 208.759L51.0682 215.873L39.2504 209.723L39.5067 197.69Z" fill="#68A0D9"/>
<path opacity="0.5" d="M77.5485 212.175L101.453 210.296L96.9844 221.474L83.7016 222.524L77.5485 212.175Z" fill="#68A0D9"/>
<path opacity="0.5" d="M117.483 204.317L136.76 190.063L138.896 201.913L128.189 209.833L117.483 204.317Z" fill="#68A0D9"/>
<path opacity="0.5" d="M20.0342 99.7361C21.1696 97.8812 22.3905 96.0752 23.6846 94.3057C29.4226 86.5445 36.5279 80.0403 44.7931 74.976C53.0583 69.9117 62.0926 66.5437 71.6152 64.9695C81.4797 63.3342 91.4541 63.7003 101.258 66.0555C111.061 68.4107 120.107 72.6208 128.153 78.5515C135.917 84.287 142.425 91.3892 147.491 99.6507C152.558 107.912 155.927 116.942 157.502 126.461C159.138 136.321 158.772 146.291 156.416 156.09C154.059 165.889 149.847 174.932 143.914 182.974C138.176 190.735 131.071 197.239 122.806 202.303C114.54 207.368 105.506 210.736 95.9834 212.31C86.1189 213.945 76.1446 213.579 66.3411 211.224C56.5377 208.868 47.4912 204.658 39.4458 198.728C31.6812 192.992 25.174 185.89 20.1075 177.629C15.0409 169.367 11.6714 160.337 10.0965 150.818C8.46055 140.958 8.8268 130.988 11.183 121.189C13.0265 113.538 15.9932 106.35 20.0342 99.7361ZM140.349 173.248C143.926 167.402 146.588 160.971 148.236 154.125C156.782 118.614 134.819 82.7738 99.2919 74.2316C82.0779 70.0948 64.2901 72.9137 49.1882 82.1514C40.105 87.716 32.6456 95.2088 27.2495 104.032C23.6724 109.877 21.0109 116.308 19.3628 123.154C15.2241 140.36 18.0442 158.14 27.2861 173.235C36.5279 188.331 51.1049 198.911 68.3189 203.048C85.5329 207.184 103.321 204.366 118.423 195.128C127.494 189.563 134.953 182.083 140.349 173.248Z" fill="#68A0D9"/>
</g>
<path opacity="0.5" d="M572.14 106.667C573.947 107.058 577.036 108.449 578.818 108.119C580.381 107.839 581.04 105.74 581.944 104.263C582.676 103.055 584.825 100.663 584.556 99.321C584.153 97.2708 580.601 95.9041 580.051 93.8784C579.856 93.1584 580.515 89.3266 580.955 88.6554C581.321 88.0941 582.481 87.7646 583.054 87.4595C584.373 86.764 587.205 85.922 587.645 84.5796C588.194 82.9322 586.888 78.173 586.412 76.5012C585.801 74.3534 585.203 74.7927 582.774 74.3534C579.343 73.7189 577.646 73.6212 576.56 69.6186C575.974 67.4831 577.988 65.4452 578.501 63.2486C578.989 61.1497 578.183 61.1741 576.376 59.5877C575.327 58.6602 572.726 55.3776 571.298 55.28C569.466 55.1579 567.196 58.2697 565.364 58.648C563.24 59.0873 560.383 57.6718 559.455 55.7315C558.796 54.3647 558.662 50.6184 557.392 49.8008C556.013 48.9222 551.52 49.6666 549.872 49.6177C547.345 49.5567 547.454 49.4225 546.563 51.8021C545.33 55.1335 545.538 56.305 542.205 57.4277C540.667 57.9403 540.313 58.2941 539.006 57.9158C537.773 57.562 536.406 56.2684 535.319 55.5851C533.183 54.2305 533.341 54.2793 531.364 55.8535C530.057 56.8908 525.98 59.0141 525.455 60.5761C524.93 62.1259 527.298 65.1523 527.53 66.7753C527.835 68.8376 526.187 71.6199 524.307 72.4497C522.647 73.1819 518.996 72.1935 517.666 73.4138C516.604 74.3778 516.518 78.8198 516.237 80.2109C515.749 82.6393 515.175 82.9078 517.129 84.2135C519.326 85.6779 521.682 86.044 522.305 88.5212C523.306 92.5726 522.525 92.8899 519.936 95.7332C518.264 97.5759 517.666 97.5027 518.728 99.626C519.509 101.176 521.096 105.776 522.574 106.655C523.77 107.375 526.834 106.24 528.263 106.008C528.824 105.911 529.764 105.545 530.314 105.74C531.193 106.045 533.915 108.669 534.184 109.474C534.843 111.365 532.902 114.831 533.903 116.54C534.599 117.723 538.066 118.394 539.348 118.895C541.179 119.615 542.425 120.64 543.938 119.773C545.696 118.76 546.441 115.478 548.309 114.697C548.92 114.441 553.022 114.526 553.583 114.807C554.316 115.173 555.121 116.796 555.622 117.443C556.916 119.114 557.331 120.53 559.199 120.481C560.872 120.445 565.804 118.87 567.098 117.821C568.392 116.759 567.867 114.843 567.879 113.013C567.879 112.305 567.586 110.743 567.904 110.096C568.136 109.681 571.786 106.594 572.14 106.667ZM534.196 69.7773C548.553 53.7302 575.913 64.957 574.997 86.3979C574.081 107.765 546.038 116.515 533.048 99.565C526.322 90.7788 526.822 78.0143 534.196 69.7773Z" fill="#68A0D9"/>
<path opacity="0.5" d="M92.1743 469.832C94.6283 470.369 98.828 472.248 101.233 471.808C103.357 471.418 104.249 468.575 105.469 466.573C106.471 464.938 109.388 461.692 109.022 459.862C108.473 457.079 103.65 455.224 102.906 452.467C102.637 451.49 103.54 446.292 104.139 445.377C104.639 444.62 106.214 444.168 106.983 443.754C108.766 442.814 112.624 441.667 113.222 439.849C113.954 437.615 112.196 431.148 111.549 428.878C110.719 425.961 109.913 426.559 106.617 425.961C101.953 425.107 99.6582 424.961 98.1809 419.53C97.3874 416.626 100.122 413.868 100.806 410.878C101.465 408.035 100.378 408.06 97.9245 405.912C96.4962 404.655 92.9679 400.188 91.0267 400.066C88.5484 399.908 85.4474 404.13 82.9691 404.643C80.0757 405.241 76.2056 403.312 74.9359 400.677C74.0447 398.822 73.8616 393.733 72.128 392.623C70.2601 391.427 64.1436 392.44 61.9216 392.379C58.491 392.293 58.6375 392.122 57.4411 395.344C55.7563 399.859 56.0493 401.458 51.52 402.983C49.4323 403.691 48.944 404.167 47.186 403.654C45.5134 403.166 43.6455 401.421 42.1805 400.494C39.2748 398.651 39.4946 398.712 36.8209 400.847C35.0507 402.263 29.5202 405.143 28.7999 407.254C28.0796 409.365 31.2905 413.478 31.6201 415.674C32.0352 418.481 29.801 422.264 27.2372 423.387C24.9909 424.375 20.022 423.045 18.2274 424.692C16.7868 426.01 16.6647 432.026 16.2862 433.918C15.6269 437.213 14.8456 437.579 17.4948 439.348C20.4737 441.337 23.6846 441.825 24.5147 445.206C25.8821 450.697 24.8077 451.136 21.2917 454.993C19.0209 457.494 18.2029 457.397 19.6558 460.277C20.7057 462.388 22.8788 468.623 24.8688 469.819C26.4925 470.796 30.6556 469.258 32.5968 468.941C33.3537 468.819 34.6356 468.318 35.3803 468.587C36.5645 469.002 40.2637 472.565 40.6422 473.651C41.5456 476.226 38.9086 480.936 40.2637 483.243C41.2038 484.854 45.9163 485.769 47.6621 486.44C50.1526 487.416 51.8374 488.807 53.9006 487.636C56.2935 486.269 57.3068 481.803 59.8462 480.741C60.6642 480.399 66.2557 480.509 67.0126 480.9C68.0137 481.4 69.1002 483.597 69.7717 484.475C71.5297 486.745 72.0913 488.661 74.6307 488.6C76.9015 488.539 83.604 486.416 85.362 484.976C87.12 483.548 86.4119 480.936 86.4241 478.447C86.4363 477.483 86.0212 475.372 86.4485 474.493C86.7293 473.907 91.686 469.722 92.1743 469.832ZM40.6544 419.726C60.1514 397.931 97.3019 413.173 96.0566 442.301C94.8114 471.32 56.733 483.206 39.1039 460.179C29.9597 448.244 30.6434 430.916 40.6544 419.726Z" fill="#68A0D9"/>
<path opacity="0.5" d="M143.047 49.9839C144.183 50.2279 146.136 51.1066 147.259 50.8991C148.248 50.7161 148.663 49.3981 149.225 48.4707C149.689 47.7141 151.044 46.2009 150.873 45.3467C150.617 44.0532 148.37 43.1868 148.028 41.9054C147.906 41.4539 148.321 39.0377 148.602 38.6106C148.834 38.2567 149.567 38.0493 149.921 37.854C150.751 37.4147 152.546 36.89 152.826 36.0357C153.168 34.9985 152.35 31.9965 152.045 30.9348C151.654 29.5803 151.288 29.861 149.75 29.5803C147.589 29.1776 146.514 29.1166 145.831 26.5905C145.465 25.236 146.734 23.9547 147.052 22.5635C147.357 21.2456 146.856 21.2578 145.709 20.2571C145.049 19.6714 143.401 17.5969 142.498 17.5358C141.35 17.4626 139.91 19.4273 138.75 19.6592C137.407 19.9399 135.6 19.0368 135.014 17.8165C134.599 16.9501 134.514 14.5949 133.708 14.0702C132.841 13.5088 129.996 13.9847 128.959 13.9603C127.372 13.9237 127.433 13.8383 126.871 15.3393C126.09 17.4382 126.224 18.1826 124.124 18.8904C123.16 19.2199 122.928 19.4395 122.11 19.2077C121.341 18.9758 120.461 18.1704 119.778 17.7311C118.423 16.8769 118.533 16.9013 117.287 17.9019C116.469 18.5609 113.893 19.9032 113.564 20.8795C113.234 21.8557 114.723 23.7716 114.87 24.7967C115.065 26.1024 114.028 27.8597 112.831 28.3844C111.781 28.8481 109.474 28.2258 108.644 28.9946C107.972 29.6047 107.923 32.3992 107.74 33.2778C107.435 34.8154 107.069 34.9741 108.302 35.8039C109.694 36.7313 111.171 36.9632 111.561 38.5252C112.196 41.0756 111.696 41.2831 110.06 43.0769C109.01 44.2362 108.631 44.1996 109.303 45.5298C109.791 46.506 110.792 49.4103 111.732 49.9595C112.489 50.411 114.418 49.7032 115.322 49.5446C115.676 49.4836 116.274 49.2517 116.616 49.3737C117.165 49.569 118.887 51.2286 119.058 51.7289C119.473 52.9248 118.252 55.1092 118.874 56.1831C119.314 56.9274 121.499 57.3546 122.317 57.6718C123.477 58.1234 124.258 58.7701 125.211 58.2332C126.322 57.5986 126.786 55.5241 127.97 55.036C128.348 54.8773 130.949 54.9261 131.303 55.1092C131.767 55.341 132.279 56.3661 132.585 56.7688C133.403 57.8183 133.659 58.7091 134.843 58.6847C135.893 58.6603 139.018 57.6718 139.824 57.0007C140.642 56.3295 140.313 55.1214 140.325 53.9621C140.325 53.5106 140.142 52.5343 140.337 52.1194C140.52 51.8754 142.815 49.9229 143.047 49.9839ZM119.106 26.6882C128.165 16.5596 145.44 23.6374 144.854 37.1828C144.268 50.6673 126.578 56.1953 118.386 45.4931C114.137 39.9529 114.455 31.8989 119.106 26.6882Z" fill="#68A0D9"/>
<path opacity="0.5" d="M623.672 64.8594C624.808 65.1035 626.761 65.9821 627.884 65.7747C628.873 65.5916 629.288 64.2737 629.85 63.3462C630.314 62.5896 631.669 61.0765 631.498 60.2222C631.242 58.9287 628.995 58.0623 628.653 56.781C628.531 56.3294 628.946 53.9132 629.227 53.4861C629.459 53.1322 630.192 52.9248 630.546 52.7295C631.376 52.2902 633.171 51.7655 633.451 50.9113C633.793 49.874 632.975 46.872 632.67 45.8104C632.279 44.4558 631.913 44.7365 630.375 44.4558C628.214 44.0531 627.14 43.9921 626.456 41.466C626.09 40.1115 627.359 38.8302 627.677 37.439C627.982 36.1211 627.481 36.1333 626.334 35.1326C625.674 34.5469 624.026 32.4724 623.123 32.4113C621.975 32.3381 620.535 34.3028 619.375 34.5347C618.032 34.8154 616.225 33.9123 615.639 32.692C615.224 31.8256 615.139 29.4704 614.333 28.9457C613.466 28.3843 610.621 28.8602 609.584 28.8358C607.997 28.7992 608.058 28.7138 607.496 30.2148C606.715 32.3137 606.849 33.0581 604.749 33.7659C603.785 34.0954 603.553 34.315 602.735 34.0832C601.966 33.8513 601.087 33.0459 600.403 32.6066C599.048 31.7524 599.158 31.7768 597.912 32.7774C597.094 33.4364 594.518 34.7787 594.189 35.755C593.859 36.7312 595.349 38.6471 595.495 39.6722C595.69 40.9779 594.653 42.7352 593.456 43.2599C592.406 43.7236 590.099 43.1013 589.269 43.8701C588.597 44.4802 588.548 47.2747 588.365 48.1534C588.06 49.6909 587.694 49.8496 588.927 50.6794C590.319 51.6068 591.796 51.8387 592.187 53.4007C592.821 55.9511 592.321 56.1586 590.685 57.9525C589.635 59.1117 589.256 59.0751 589.928 60.4053C590.416 61.3815 591.417 64.2859 592.357 64.835C593.114 65.2865 595.043 64.5787 595.947 64.4201C596.301 64.3591 596.899 64.1272 597.241 64.2493C597.79 64.4445 599.512 66.1041 599.683 66.6045C600.098 67.8004 598.877 69.9847 599.499 71.0586C599.939 71.803 602.124 72.2301 602.942 72.5474C604.102 72.9989 604.883 73.6457 605.836 73.1087C606.947 72.4742 607.411 70.3996 608.595 69.9115C608.973 69.7529 611.574 69.8017 611.928 69.9847C612.392 70.2166 612.904 71.2416 613.21 71.6443C614.028 72.6938 614.284 73.5846 615.468 73.5602C616.518 73.5358 619.644 72.5474 620.449 71.8762C621.267 71.205 620.938 69.9969 620.95 68.8376C620.95 68.3861 620.767 67.4099 620.962 66.995C621.145 66.7509 623.453 64.8106 623.672 64.8594ZM599.731 41.5637C608.79 31.4351 626.065 38.5129 625.479 52.0583C624.893 65.5428 607.203 71.0708 599.011 60.3687C594.763 54.8285 595.08 46.7744 599.731 41.5637Z" fill="#68A0D9"/>
<g opacity="0.5">
<path opacity="0.5" d="M173.459 86.3856C164.51 78.5146 163.643 64.8349 171.518 55.9022C179.392 46.9574 193.078 46.091 202.014 53.962C210.963 61.833 211.83 75.5126 203.956 84.4453C196.093 93.378 182.408 94.2566 173.459 86.3856ZM199.683 56.61C192.199 50.0326 180.759 50.7525 174.179 58.233C167.599 65.7135 168.319 77.1478 175.803 83.7253C183.287 90.3028 194.726 89.5828 201.306 82.1023C207.899 74.6218 207.166 63.1875 199.683 56.61Z" fill="#68A0D9"/>
<path opacity="0.5" d="M211.293 54.2915L200.732 45.005L207.264 42.2715L213.173 47.47L211.293 54.2915Z" fill="#68A0D9"/>
<path opacity="0.5" d="M195.568 42.8695L181.504 42.54L184.752 36.2554L192.626 36.4384L195.568 42.8695Z" fill="#68A0D9"/>
<path opacity="0.5" d="M176.181 44.2241L165.194 53.0103L163.643 46.1034L169.784 41.1978L176.181 44.2241Z" fill="#68A0D9"/>
<path opacity="0.5" d="M162.215 57.7207L159.443 71.5102L153.803 67.2147L155.353 59.5024L162.215 57.7207Z" fill="#68A0D9"/>
<path opacity="0.5" d="M160.176 77.0381L166.927 89.3754L159.846 89.7171L156.074 82.8102L160.176 77.0381Z" fill="#68A0D9"/>
<path opacity="0.5" d="M171.041 93.1462L184.153 98.2593L178.94 103.067L171.615 100.2L171.041 93.1462Z" fill="#68A0D9"/>
<path opacity="0.5" d="M189.72 98.4912L203.052 94.0005L202.149 101.017L194.702 103.531L189.72 98.4912Z" fill="#68A0D9"/>
<path opacity="0.5" d="M207.472 90.5958L214.797 78.5879L218.618 84.543L214.528 91.2547L207.472 90.5958Z" fill="#68A0D9"/>
<path opacity="0.5" d="M215.993 73.1332L213.881 59.2339L220.645 61.345L221.829 69.1184L215.993 73.1332Z" fill="#68A0D9"/>
<path opacity="0.5" d="M168.551 91.9627C156.525 81.3826 155.353 63.0047 165.938 50.9846C176.523 38.9646 194.909 37.7931 206.934 48.3732C218.96 58.9533 220.132 77.3312 209.547 89.3512C198.962 101.371 180.576 102.543 168.551 91.9627ZM203.785 51.9487C193.725 43.1014 178.354 44.0899 169.503 54.133C160.652 64.1884 161.641 79.5521 171.688 88.3994C181.748 97.2466 197.119 96.2582 205.97 86.215C214.821 76.1596 213.844 60.7837 203.785 51.9487Z" fill="#68A0D9"/>
</g>
<g opacity="0.5">
<path opacity="0.5" d="M608.973 158.762C594.164 145.742 592.724 123.105 605.75 108.315C618.777 93.5123 641.423 92.0723 656.22 105.093C671.029 118.114 672.47 140.75 659.443 155.541C646.417 170.343 623.782 171.783 608.973 158.762ZM652.362 109.486C639.983 98.5888 621.047 99.7969 610.145 112.183C599.243 124.557 600.452 143.484 612.843 154.381C625.235 165.279 644.158 164.071 655.06 151.697C665.95 139.298 664.742 120.371 652.362 109.486Z" fill="#68A0D9"/>
<path opacity="0.5" d="M671.578 105.654L654.096 90.2786L664.913 85.7512L674.692 94.3544L671.578 105.654Z" fill="#68A0D9"/>
<path opacity="0.5" d="M645.562 86.7518L622.28 86.2027L627.664 75.7935L640.679 76.0985L645.562 86.7518Z" fill="#68A0D9"/>
<path opacity="0.5" d="M613.478 88.9972L595.3 103.531L592.724 92.0967L602.893 83.9695L613.478 88.9972Z" fill="#68A0D9"/>
<path opacity="0.5" d="M590.343 111.329L585.765 134.149L576.437 127.046L579.001 114.282L590.343 111.329Z" fill="#68A0D9"/>
<path opacity="0.5" d="M586.986 143.301L598.144 163.717L586.436 164.266L580.198 152.844L586.986 143.301Z" fill="#68A0D9"/>
<path opacity="0.5" d="M604.969 169.94L626.651 178.422L618.044 186.366L605.909 181.619L604.969 169.94Z" fill="#68A0D9"/>
<path opacity="0.5" d="M635.881 178.8L657.942 171.356L656.452 182.986L644.109 187.147L635.881 178.8Z" fill="#68A0D9"/>
<path opacity="0.5" d="M665.254 165.73L677.377 145.851L683.701 155.711L676.926 166.829L665.254 165.73Z" fill="#68A0D9"/>
<path opacity="0.5" d="M679.355 136.833L675.851 113.831L687.047 117.321L689 130.183L679.355 136.833Z" fill="#68A0D9"/>
<path opacity="0.5" d="M600.842 167.988C580.942 150.489 579.001 120.066 596.52 100.188C614.028 80.2965 644.463 78.3562 664.351 95.8677C684.251 113.367 686.192 143.789 668.673 163.668C651.154 183.547 620.742 185.5 600.842 167.988ZM659.163 101.762C642.522 87.1181 617.067 88.7411 602.429 105.374C587.791 122.007 589.403 147.45 606.043 162.082C622.683 176.713 648.138 175.102 662.776 158.47C677.426 141.837 675.803 116.406 659.163 101.762Z" fill="#68A0D9"/>
</g>
<path d="M406.666 484.744H306.336V560.049H406.666V484.744Z" fill="#576574"/>
<path opacity="0.75" d="M406.666 463.645H306.336V501.499H406.666V463.645Z" fill="#222F3E"/>
<path d="M491.894 560.049H216.567V576.633H491.894V560.049Z" fill="#576574"/>
<path d="M629.537 484.744H79.7021C76.0151 484.744 72.9996 481.73 72.9996 478.044V142.923C72.9996 139.237 76.0151 136.223 79.7021 136.223H629.537C633.224 136.223 636.24 139.237 636.24 142.923V478.044C636.24 481.73 633.224 484.744 629.537 484.744Z" fill="#576574"/>
<path d="M612.848 474.164H96.3912C92.9239 474.164 90.0916 471.333 90.0916 467.867V153.1C90.0916 149.634 92.9239 146.803 96.3912 146.803H612.848C616.315 146.803 619.148 149.634 619.148 153.1V467.867C619.148 471.333 616.303 474.164 612.848 474.164Z" fill="#222F3E"/>
<path d="M602.043 467.318H107.196C103.875 467.318 101.165 464.609 101.165 461.289V159.678C101.165 156.358 103.875 153.649 107.196 153.649H602.056C605.376 153.649 608.087 156.358 608.087 159.678V461.289C608.074 464.596 605.364 467.318 602.043 467.318Z" fill="white"/>
<g clip-path="url(#clip1_106_126)">
<path d="M422.005 267C422.005 301.22 394.164 329 359.866 329C340.337 329 322.825 319.981 311.446 305.89C302.811 295.262 297.647 281.735 297.647 267C297.647 232.779 325.488 205 359.786 205C374.554 205 388.111 210.153 398.764 218.688C412.967 230.041 422.005 247.433 422.005 267Z" fill="#FAB2C1"/>
<path d="M412.563 257.579C412.563 291.8 384.722 319.579 350.424 319.579C335.656 319.579 322.099 314.425 311.446 305.89C302.811 295.262 297.647 281.735 297.647 267C297.647 232.779 325.488 205 359.786 205C374.554 205 388.111 210.153 398.764 218.688C407.479 229.316 412.563 242.844 412.563 257.579Z" fill="#FFD8E0"/>
<path d="M345.098 301.301C345.179 297.275 341.628 292.846 334.042 292.846C326.376 292.846 322.825 297.275 322.986 301.301H345.098Z" fill="#F8455B"/>
<path d="M376.571 271.75C376.49 272.958 375.926 274.085 375.038 274.971C374.231 275.776 373.101 276.34 371.81 276.42L369.308 276.581C345.744 277.95 322.099 278.031 298.534 276.823L296.113 276.662C292.724 276.662 289.738 274.568 288.608 271.348L288.124 269.979V269.898C288.205 270.059 288.285 270.301 288.366 270.462C288.447 270.623 288.528 270.784 288.689 270.945C288.689 270.945 288.689 270.945 288.689 271.025C288.77 271.187 288.931 271.267 289.012 271.428C289.173 271.589 289.335 271.75 289.496 271.911C289.657 271.992 289.738 272.153 289.899 272.233C290.222 272.475 290.545 272.636 290.949 272.797C290.949 272.797 290.949 272.797 291.029 272.797C291.191 272.877 291.352 272.958 291.594 272.958C291.756 273.038 291.917 273.038 292.078 273.038C292.24 273.038 292.482 273.119 292.643 273.119L295.064 273.28C318.629 274.488 342.274 274.407 365.838 273.038L368.34 272.877C369.631 272.797 370.68 272.233 371.568 271.428C372.375 270.623 372.94 269.496 373.101 268.207C374.312 253.794 374.312 239.301 373.101 224.888V224.566C373.02 223.599 372.698 222.714 372.133 221.989C372.052 221.909 372.052 221.828 371.971 221.748C371.891 221.587 371.729 221.506 371.648 221.345C371.084 220.781 370.277 220.298 369.47 220.057L370.357 220.298C373.908 221.264 376.41 224.405 376.733 228.109V228.431C377.782 242.844 377.782 257.337 376.571 271.75Z" fill="#AD0025"/>
<path d="M371.891 276.42L369.389 276.582C345.824 277.95 322.179 278.031 298.615 276.823L296.194 276.662C293.692 276.501 291.594 274.488 291.433 271.992V271.589C290.303 257.257 290.303 242.844 291.433 228.511V228.109C291.675 225.613 293.612 223.6 296.194 223.439C321.372 221.909 346.712 221.909 371.891 223.439C374.392 223.6 376.41 225.613 376.652 228.109V228.431C377.782 242.844 377.782 257.337 376.652 271.75C376.41 274.246 374.392 276.259 371.891 276.42Z" fill="#AD0025"/>
<path d="M368.34 272.878L365.838 273.039C342.274 274.407 318.629 274.488 295.064 273.28L292.643 273.119C290.141 272.958 288.043 270.945 287.882 268.449V268.046C286.752 253.714 286.752 239.301 287.882 224.968V224.566C288.124 222.07 290.061 220.057 292.643 219.896C317.822 218.366 343.161 218.366 368.34 219.896C370.841 220.057 372.859 222.07 373.101 224.566V224.888C374.231 239.301 374.231 253.794 373.101 268.207C372.859 270.703 370.841 272.636 368.34 272.878Z" fill="#F8455B"/>
<path d="M319.274 253.794C318.951 253.794 318.629 253.633 318.386 253.392L306.12 241.233C305.636 240.75 305.636 239.945 306.12 239.462C306.604 238.979 307.411 238.979 307.896 239.462L320.162 251.701C320.646 252.184 320.646 252.989 320.162 253.472C319.92 253.714 319.597 253.794 319.274 253.794Z" fill="white"/>
<path d="M307.25 253.794C306.927 253.794 306.604 253.633 306.362 253.392C305.878 252.909 305.878 252.103 306.362 251.62L318.629 239.381C319.113 238.898 319.92 238.898 320.404 239.381C320.888 239.864 320.888 240.67 320.404 241.153L308.138 253.472C307.895 253.714 307.573 253.794 307.25 253.794Z" fill="white"/>
<path d="M353.652 253.794C353.33 253.794 353.007 253.633 352.765 253.392L340.498 241.233C340.014 240.75 340.014 239.945 340.498 239.462C340.982 238.979 341.789 238.979 342.274 239.462L354.54 251.701C355.024 252.184 355.024 252.989 354.54 253.472C354.298 253.714 353.975 253.794 353.652 253.794Z" fill="white"/>
<path d="M341.709 253.794C341.386 253.794 341.063 253.633 340.821 253.392C340.337 252.909 340.337 252.103 340.821 251.62L353.087 239.381C353.572 238.898 354.379 238.898 354.863 239.381C355.347 239.864 355.347 240.67 354.863 241.153L342.596 253.392C342.354 253.714 342.032 253.794 341.709 253.794Z" fill="white"/>
<path d="M242.044 323.122V304.602H207.263V289.142L228.729 210.877H258.588V290.109H267.223V304.602H258.588V323.122H242.044ZM222.434 290.109H242.125V225.451L222.434 290.109Z" fill="#AD0025"/>
<path d="M234.862 323.122V304.602H200V289.142L221.547 210.877H251.405V290.109H260.04V304.602H251.405V323.122H234.862ZM215.171 290.109H234.862V225.451L215.171 290.109Z" fill="#F8455B"/>
<path d="M483.821 323.122V304.602H448.959V289.142L470.506 210.877H500.365V290.109H509V304.602H500.365V323.122H483.821ZM464.211 290.109H483.902V225.451L464.211 290.109Z" fill="#AD0025"/>
<path d="M476.639 323.122V304.602H441.777V289.142L463.323 210.877H493.182V290.109H501.817V304.602H493.182V323.122H476.639ZM456.948 290.109H476.639V225.451L456.948 290.109Z" fill="#F8455B"/>
</g>
<path d="M198.181 346.531H213.319C217.263 346.531 220.4 347.471 222.72 349.362C225.04 351.254 226.199 354.073 226.199 357.819C226.199 361.504 225.052 364.287 222.744 366.178C220.437 368.07 217.434 369.009 213.722 369.009H205.836V381.627H198.193V346.531H198.181ZM205.823 352.84V362.944H212.685C216.701 362.944 218.703 361.273 218.703 357.917C218.703 354.536 216.713 352.84 212.733 352.84H205.823Z" fill="#EE0033"/>
<path d="M206.104 381.908H197.9V346.239H213.332C217.324 346.239 220.547 347.215 222.903 349.143C225.284 351.083 226.48 354 226.48 357.819C226.48 361.578 225.284 364.458 222.928 366.398C220.584 368.326 217.483 369.302 213.722 369.302H206.116V381.908H206.104ZM198.462 381.347H205.543V368.729H213.722C217.348 368.729 220.327 367.801 222.561 365.959C224.783 364.128 225.906 361.395 225.906 357.819C225.906 354.183 224.771 351.413 222.537 349.582C220.278 347.739 217.177 346.812 213.319 346.812H198.462V381.347ZM212.685 363.225H205.543V352.548H212.733C216.884 352.548 218.984 354.354 218.984 357.905C218.984 361.444 216.86 363.225 212.685 363.225ZM206.104 362.664H212.672C216.53 362.664 218.41 361.114 218.41 357.917C218.41 354.695 216.555 353.121 212.733 353.121H206.116V362.664H206.104Z" fill="#007AA5"/>
<path d="M253.962 381.628H246.856C246.624 380.969 246.466 380.151 246.368 379.163C244.231 381.298 241.484 382.372 238.127 382.372C235.295 382.372 233.085 381.689 231.473 380.322C229.862 378.955 229.056 377.076 229.056 374.672C229.056 373.586 229.19 372.634 229.471 371.816C229.752 370.999 230.216 370.303 230.851 369.742C231.498 369.18 232.096 368.729 232.67 368.363C233.244 367.997 234.037 367.704 235.063 367.472C236.076 367.24 236.906 367.069 237.529 366.959C238.152 366.85 239.031 366.715 240.142 366.593C242.608 366.264 244.256 365.922 245.098 365.556C245.941 365.19 246.356 364.519 246.356 363.53C246.356 361.261 244.83 360.126 241.765 360.126C240.154 360.126 238.969 360.419 238.213 360.992C237.456 361.566 236.967 362.579 236.735 364.018H230.179C230.57 358.295 234.501 355.44 241.973 355.44C249.371 355.44 253.07 358.198 253.07 363.726V374.721C253.07 377.942 253.376 380.249 253.962 381.628ZM246.319 369.254C245.501 369.742 243.853 370.193 241.387 370.584C239.311 370.913 237.968 371.328 237.346 371.816C236.625 372.439 236.259 373.293 236.259 374.379C236.259 375.428 236.601 376.258 237.272 376.868C237.944 377.479 238.896 377.784 240.105 377.784C241.985 377.784 243.487 377.283 244.622 376.283C245.757 375.282 246.319 373.891 246.319 372.121V369.254Z" fill="#EE0033"/>
<path d="M238.127 382.653C235.246 382.653 232.938 381.945 231.29 380.541C229.618 379.126 228.775 377.161 228.775 374.684C228.775 373.574 228.922 372.585 229.215 371.731C229.508 370.864 229.996 370.132 230.68 369.534C231.327 368.973 231.95 368.497 232.536 368.131C233.134 367.753 233.976 367.448 235.014 367.204C236.027 366.972 236.857 366.801 237.492 366.679C238.115 366.569 239.006 366.435 240.129 366.301C242.559 365.983 244.195 365.642 245.001 365.288C245.733 364.97 246.087 364.397 246.087 363.53C246.087 361.432 244.683 360.419 241.79 360.419C240.251 360.419 239.116 360.687 238.408 361.224C237.712 361.749 237.248 362.713 237.041 364.08L237.004 364.324H229.886L229.911 364.019C230.314 358.149 234.379 355.171 241.985 355.171C249.542 355.171 253.363 358.051 253.363 363.738V374.733C253.363 377.906 253.656 380.188 254.23 381.518L254.401 381.92H246.661L246.6 381.725C246.404 381.188 246.258 380.529 246.16 379.761C244.024 381.676 241.338 382.653 238.127 382.653ZM241.777 359.845C245.013 359.845 246.649 361.09 246.649 363.53C246.649 364.641 246.173 365.41 245.22 365.812C244.353 366.191 242.705 366.532 240.19 366.874C239.079 367.008 238.2 367.13 237.59 367.24C236.967 367.35 236.149 367.533 235.136 367.753C234.147 367.972 233.378 368.265 232.829 368.607C232.267 368.961 231.669 369.412 231.034 369.961C230.436 370.486 229.996 371.145 229.74 371.914C229.471 372.707 229.337 373.635 229.337 374.684C229.337 376.99 230.118 378.809 231.657 380.114C233.207 381.432 235.38 382.091 238.127 382.091C241.387 382.091 244.085 381.042 246.16 378.967L246.588 378.54L246.649 379.138C246.734 380.005 246.881 380.749 247.064 381.347H253.546C253.046 379.907 252.79 377.686 252.79 374.733V363.738C252.79 361.09 251.898 359.076 250.128 357.758C248.333 356.416 245.599 355.745 241.973 355.745C238.322 355.745 235.502 356.453 233.598 357.832C231.779 359.15 230.741 361.139 230.497 363.75H236.503C236.76 362.359 237.285 361.358 238.054 360.773C238.86 360.162 240.117 359.845 241.777 359.845ZM240.105 378.064C238.823 378.064 237.797 377.735 237.077 377.076C236.345 376.417 235.966 375.502 235.966 374.379C235.966 373.207 236.369 372.28 237.15 371.597L237.163 371.584C237.834 371.06 239.201 370.633 241.338 370.291C243.755 369.9 245.379 369.473 246.173 368.997L246.6 368.741V372.109C246.6 373.964 245.989 375.441 244.805 376.49C243.621 377.54 242.046 378.064 240.105 378.064ZM237.517 372.036C236.857 372.61 236.54 373.378 236.54 374.379C236.54 375.355 236.845 376.1 237.456 376.661C238.066 377.222 238.957 377.503 240.105 377.503C241.9 377.503 243.352 377.027 244.427 376.075C245.489 375.136 246.026 373.805 246.026 372.121V369.73C245.098 370.157 243.572 370.535 241.423 370.877C239.421 371.182 238.103 371.584 237.517 372.036Z" fill="#007AA5"/>
<path d="M283.018 356.184V378.955C283.018 383.129 281.98 386.192 279.905 388.144C277.829 390.097 274.692 391.073 270.48 391.073C263.216 391.073 259.236 388.425 258.54 383.141H265.499C265.767 384.288 266.304 385.118 267.122 385.63C267.94 386.143 269.112 386.399 270.626 386.399C272.824 386.399 274.313 385.862 275.07 384.8C275.827 383.726 276.218 382.067 276.254 379.797L276.303 376.942C274.399 379.577 271.798 380.883 268.514 380.883C265.193 380.883 262.556 379.748 260.603 377.479C258.65 375.209 257.673 372.17 257.673 368.363C257.673 364.482 258.686 361.37 260.725 359.015C262.764 356.66 265.462 355.489 268.819 355.489C270.59 355.489 272.067 355.806 273.239 356.453C274.411 357.099 275.461 358.137 276.425 359.589V356.184H283.018ZM274.777 362.847C273.727 361.566 272.274 360.919 270.431 360.919C268.587 360.919 267.147 361.566 266.121 362.871C265.084 364.165 264.571 365.983 264.571 368.314C264.571 370.547 265.108 372.329 266.17 373.659C267.232 374.989 268.673 375.66 270.492 375.66C272.299 375.66 273.727 374.989 274.777 373.635C275.827 372.292 276.352 370.462 276.352 368.168C276.352 365.898 275.827 364.128 274.777 362.847Z" fill="#EE0033"/>
<path d="M270.48 391.378C263.081 391.378 258.967 388.62 258.259 383.189L258.222 382.872H265.731L265.779 383.092C266.024 384.178 266.512 384.935 267.281 385.398C268.05 385.874 269.186 386.118 270.638 386.118C272.738 386.118 274.142 385.618 274.85 384.642C275.571 383.629 275.949 381.994 275.986 379.797L276.022 377.784C274.118 380.029 271.603 381.164 268.526 381.164C265.132 381.164 262.398 379.98 260.395 377.661C258.406 375.355 257.392 372.219 257.392 368.351C257.392 364.421 258.442 361.212 260.518 358.82C262.605 356.416 265.401 355.196 268.819 355.196C270.638 355.196 272.164 355.525 273.373 356.196C274.362 356.745 275.29 357.575 276.132 358.686V355.891H283.311V378.955C283.311 383.189 282.237 386.35 280.112 388.351C277.988 390.365 274.753 391.378 270.48 391.378ZM258.882 383.446C259.675 388.4 263.472 390.816 270.492 390.816C274.606 390.816 277.707 389.852 279.722 387.961C281.724 386.069 282.737 383.043 282.737 378.979V356.489H276.694V360.553L276.169 359.76C275.241 358.356 274.203 357.331 273.092 356.721C271.969 356.111 270.529 355.794 268.819 355.794C265.572 355.794 262.923 356.941 260.945 359.223C258.967 361.505 257.954 364.592 257.954 368.375C257.954 372.097 258.918 375.111 260.823 377.308C262.715 379.504 265.303 380.615 268.526 380.615C271.701 380.615 274.252 379.333 276.083 376.783L276.621 376.051L276.56 379.809C276.523 382.128 276.108 383.861 275.326 384.971C274.521 386.118 272.946 386.692 270.651 386.692C269.088 386.692 267.867 386.423 267 385.886C266.17 385.374 265.596 384.544 265.303 383.434H258.882V383.446ZM270.48 375.953C268.587 375.953 267.061 375.245 265.938 373.854C264.827 372.475 264.278 370.62 264.278 368.326C264.278 365.934 264.827 364.043 265.889 362.7C266.976 361.334 268.502 360.65 270.431 360.65C272.348 360.65 273.886 361.334 274.997 362.676C276.083 364.006 276.645 365.861 276.645 368.18C276.645 370.535 276.096 372.439 275.009 373.83C273.898 375.233 272.372 375.953 270.48 375.953ZM270.431 361.212C268.661 361.212 267.33 361.81 266.341 363.054C265.352 364.299 264.852 366.069 264.852 368.326C264.852 370.486 265.364 372.219 266.39 373.5C267.415 374.769 268.746 375.392 270.48 375.392C272.213 375.392 273.544 374.769 274.545 373.476C275.558 372.182 276.059 370.401 276.059 368.18C276.059 365.995 275.546 364.262 274.545 363.03C273.556 361.797 272.201 361.212 270.431 361.212Z" fill="#007AA5"/>
<path d="M312.66 373.744C311.867 376.478 310.414 378.589 308.29 380.102C306.165 381.615 303.65 382.372 300.72 382.372C296.801 382.372 293.664 381.151 291.271 378.723C288.89 376.295 287.694 373.073 287.694 369.058C287.694 365.117 288.89 361.858 291.295 359.296C293.7 356.733 296.753 355.452 300.464 355.452C304.31 355.452 307.374 356.758 309.633 359.369C311.891 361.981 313.039 365.519 313.039 369.998V370.693H294.787C294.824 372.89 295.349 374.574 296.386 375.721C297.424 376.868 298.877 377.442 300.757 377.442C303.223 377.442 304.944 376.209 305.933 373.744H312.66ZM305.946 366.252C305.775 364.58 305.237 363.201 304.322 362.139C303.406 361.078 302.124 360.541 300.476 360.541C298.926 360.541 297.644 361.053 296.63 362.066C295.605 363.091 295.007 364.482 294.811 366.252H305.946Z" fill="#EE0033"/>
<path d="M300.72 382.653C296.74 382.653 293.505 381.396 291.076 378.918C288.646 376.441 287.413 373.122 287.413 369.058C287.413 365.056 288.646 361.712 291.088 359.101C293.529 356.489 296.691 355.159 300.464 355.159C304.383 355.159 307.533 356.513 309.852 359.174C312.16 361.822 313.319 365.471 313.319 369.986V370.962H295.08C295.153 372.939 295.666 374.476 296.606 375.514C297.583 376.6 298.974 377.149 300.757 377.149C303.113 377.149 304.725 376.002 305.677 373.634L305.75 373.451H313.026L312.917 373.817C312.111 376.6 310.609 378.784 308.448 380.334C306.3 381.872 303.687 382.653 300.72 382.653ZM300.476 355.733C296.862 355.733 293.847 357.002 291.515 359.491C289.171 361.993 287.987 365.202 287.987 369.058C287.987 372.975 289.159 376.16 291.478 378.516C293.798 380.883 296.899 382.079 300.72 382.079C303.577 382.079 306.068 381.335 308.131 379.858C310.096 378.455 311.488 376.49 312.282 374.013H306.153C305.115 376.466 303.308 377.71 300.781 377.71C298.828 377.71 297.29 377.1 296.203 375.892C295.129 374.696 294.555 372.939 294.531 370.681V370.388H312.782V369.986C312.782 365.605 311.659 362.09 309.449 359.552C307.227 357.026 304.212 355.733 300.476 355.733ZM306.263 366.532H294.482L294.518 366.215C294.726 364.384 295.361 362.92 296.423 361.858C297.497 360.785 298.852 360.248 300.476 360.248C302.197 360.248 303.565 360.821 304.542 361.944C305.494 363.054 306.068 364.494 306.239 366.215L306.263 366.532ZM295.129 365.959H305.628C305.433 364.494 304.92 363.262 304.102 362.31C303.235 361.297 302.039 360.809 300.476 360.809C299.011 360.809 297.79 361.297 296.826 362.249C295.922 363.164 295.349 364.409 295.129 365.959Z" fill="#007AA5"/>
<path d="M354.731 381.628H347.625V366.789C347.625 364.983 347.332 363.604 346.734 362.676C346.148 361.737 344.988 361.273 343.279 361.273C339.592 361.273 337.761 363.506 337.761 367.972V381.628H330.802V356.184H337.456V359.735C339.555 356.904 342.376 355.501 345.892 355.501C348.626 355.501 350.775 356.294 352.35 357.868C353.925 359.442 354.718 361.7 354.718 364.616V381.628H354.731Z" fill="#EE0033"/>
<path d="M355.012 381.908H347.345V366.789C347.345 365.043 347.064 363.713 346.502 362.823C345.965 361.98 344.891 361.553 343.291 361.553C339.763 361.553 338.054 363.652 338.054 367.972V381.908H330.533V355.903H337.761V358.918C339.849 356.452 342.595 355.208 345.904 355.208C348.7 355.208 350.946 356.038 352.57 357.661C354.194 359.284 355.024 361.627 355.024 364.616V381.908H355.012ZM347.906 381.347H354.438V364.629C354.438 361.797 353.669 359.589 352.155 358.075C350.641 356.562 348.529 355.794 345.892 355.794C342.486 355.794 339.726 357.185 337.688 359.918L337.175 360.614V356.489H331.095V381.347H337.48V367.972C337.48 363.335 339.433 360.98 343.291 360.98C345.098 360.98 346.343 361.492 346.991 362.517C347.613 363.494 347.918 364.934 347.918 366.789V381.347H347.906Z" fill="#007AA5"/>
<path d="M372.531 355.452C376.437 355.452 379.587 356.685 381.98 359.15C384.361 361.615 385.557 364.873 385.557 368.912C385.557 372.988 384.361 376.258 381.98 378.723C379.599 381.188 376.413 382.421 372.433 382.421C368.453 382.421 365.267 381.188 362.861 378.723C360.456 376.258 359.26 372.988 359.26 368.912C359.26 364.873 360.481 361.615 362.91 359.15C365.34 356.685 368.551 355.452 372.531 355.452ZM372.335 360.773C370.455 360.773 368.978 361.493 367.891 362.945C366.805 364.397 366.268 366.374 366.268 368.912C366.268 371.511 366.805 373.525 367.891 374.977C368.978 376.429 370.492 377.149 372.433 377.149C374.374 377.149 375.876 376.417 376.95 374.953C378.025 373.488 378.549 371.462 378.549 368.863C378.549 366.337 378 364.348 376.901 362.92C375.79 361.493 374.276 360.773 372.335 360.773Z" fill="#EE0033"/>
<path d="M372.433 382.702C368.392 382.702 365.108 381.433 362.666 378.919C360.225 376.405 358.979 373.037 358.979 368.912C358.979 364.812 360.237 361.456 362.715 358.954C365.193 356.441 368.502 355.171 372.531 355.171C376.511 355.171 379.746 356.441 382.175 358.954C384.605 361.468 385.826 364.812 385.826 368.912C385.826 373.049 384.593 376.417 382.175 378.919C379.746 381.433 376.474 382.702 372.433 382.702ZM372.531 355.733C368.648 355.733 365.486 356.953 363.118 359.345C360.75 361.737 359.553 364.958 359.553 368.912C359.553 372.89 360.737 376.124 363.069 378.528C365.401 380.92 368.551 382.14 372.433 382.14C376.315 382.14 379.453 380.92 381.773 378.528C384.092 376.124 385.264 372.89 385.264 368.912C385.264 364.971 384.092 361.749 381.773 359.345C379.453 356.953 376.34 355.733 372.531 355.733ZM372.433 377.43C370.406 377.43 368.807 376.661 367.672 375.148C366.549 373.659 365.987 371.56 365.987 368.912C365.987 366.325 366.549 364.263 367.672 362.774C368.807 361.261 370.382 360.492 372.335 360.492C374.362 360.492 375.974 361.249 377.121 362.75C378.257 364.226 378.83 366.276 378.83 368.863C378.83 371.511 378.269 373.61 377.17 375.123C376.059 376.649 374.46 377.43 372.433 377.43ZM372.335 361.065C370.541 361.065 369.161 361.737 368.123 363.116C367.086 364.507 366.549 366.459 366.549 368.912C366.549 371.438 367.074 373.415 368.123 374.806C369.161 376.185 370.565 376.856 372.433 376.856C374.289 376.856 375.693 376.173 376.718 374.782C377.744 373.378 378.269 371.389 378.269 368.863C378.269 366.41 377.732 364.47 376.682 363.091C375.619 361.724 374.191 361.065 372.335 361.065Z" fill="#007AA5"/>
<path d="M404.151 356.184V360.919H398.974V372.902C398.974 373.659 398.987 374.208 399.023 374.55C399.06 374.891 399.17 375.245 399.365 375.611C399.56 375.977 399.866 376.209 400.281 376.331C400.696 376.441 401.27 376.502 402.027 376.502C402.881 376.502 403.589 376.466 404.151 376.405V381.725C402.442 381.859 401.025 381.92 399.914 381.92C396.862 381.92 394.775 381.383 393.676 380.322C392.577 379.26 392.028 377.186 392.028 374.135V360.919H387.791V356.184H392.028V348.496H398.987V356.184H404.151Z" fill="#EE0033"/>
<path d="M399.902 382.213C396.74 382.213 394.628 381.664 393.468 380.529C392.296 379.394 391.735 377.308 391.735 374.135V361.212H387.498V355.903H391.735V348.215H399.255V355.903H404.432V361.212H399.255V372.902C399.255 373.647 399.267 374.196 399.304 374.525C399.328 374.83 399.438 375.148 399.621 375.477C399.78 375.77 400.024 375.965 400.366 376.051C400.745 376.16 401.306 376.209 402.039 376.209C402.881 376.209 403.589 376.173 404.126 376.112L404.444 376.075V381.981L404.175 382.006C402.454 382.14 401.013 382.213 399.902 382.213ZM388.06 360.638H392.296V374.135C392.296 377.1 392.821 379.114 393.859 380.114C394.897 381.127 396.936 381.64 399.902 381.64C400.94 381.64 402.271 381.579 403.858 381.469V376.722C403.345 376.771 402.735 376.795 402.027 376.795C401.233 376.795 400.635 376.734 400.195 376.612C399.707 376.478 399.341 376.185 399.109 375.758C398.889 375.367 398.767 374.965 398.73 374.586C398.694 374.232 398.681 373.683 398.681 372.902V360.638H403.858V356.477H398.681V348.789H392.296V356.477H388.06V360.638Z" fill="#007AA5"/>
<path d="M435.075 346.531V351.657C433.622 351.595 432.853 351.559 432.755 351.559C431.51 351.559 430.68 351.73 430.265 352.071C429.85 352.413 429.654 353.121 429.654 354.17V356.196H434.635V360.931H429.703V381.64H422.695V360.931H418.557V356.196H422.695V354.866C422.695 351.876 423.367 349.716 424.722 348.386C426.065 347.056 428.311 346.385 431.425 346.385C431.791 346.385 432.169 346.397 432.584 346.409C433 346.421 433.451 346.446 433.94 346.482C434.428 346.507 434.806 346.531 435.075 346.531Z" fill="#EE0033"/>
<path d="M429.984 381.908H422.415V361.212H418.264V355.903H422.403V354.854C422.403 351.803 423.111 349.546 424.515 348.167C425.906 346.788 428.238 346.092 431.425 346.092C431.779 346.092 432.169 346.104 432.597 346.116C433.012 346.129 433.463 346.153 433.964 346.19C434.44 346.226 434.819 346.238 435.075 346.238H435.356V351.95L435.063 351.937C433.622 351.876 432.853 351.84 432.755 351.84C431.29 351.84 430.692 352.084 430.448 352.291C430.106 352.572 429.935 353.206 429.935 354.17V355.903H434.916V361.212H429.984V381.908ZM422.976 381.347H429.41V360.638H434.342V356.477H429.361V354.17C429.361 353.023 429.593 352.267 430.082 351.852C430.546 351.461 431.425 351.266 432.755 351.266C432.816 351.266 433.122 351.278 434.794 351.352V346.812C434.562 346.8 434.269 346.788 433.927 346.763C433.439 346.727 432.987 346.702 432.572 346.69C432.157 346.678 431.779 346.666 431.425 346.666C428.397 346.666 426.199 347.312 424.917 348.581C423.636 349.851 422.976 351.962 422.976 354.866V356.477H418.838V360.638H422.976V381.347Z" fill="#007AA5"/>
<path d="M450.165 355.452C454.071 355.452 457.221 356.685 459.614 359.15C461.995 361.615 463.191 364.873 463.191 368.912C463.191 372.988 461.995 376.258 459.614 378.723C457.233 381.188 454.047 382.421 450.067 382.421C446.087 382.421 442.901 381.188 440.496 378.723C438.091 376.258 436.894 372.988 436.894 368.912C436.894 364.873 438.115 361.615 440.544 359.15C442.974 356.685 446.185 355.452 450.165 355.452ZM449.969 360.773C448.089 360.773 446.612 361.493 445.525 362.945C444.439 364.397 443.902 366.374 443.902 368.912C443.902 371.511 444.439 373.525 445.525 374.977C446.612 376.429 448.126 377.149 450.067 377.149C452.008 377.149 453.51 376.417 454.584 374.953C455.658 373.488 456.183 371.462 456.183 368.863C456.183 366.337 455.634 364.348 454.535 362.92C453.424 361.493 451.91 360.773 449.969 360.773Z" fill="#EE0033"/>
<path d="M450.067 382.702C446.026 382.702 442.742 381.433 440.3 378.919C437.859 376.405 436.613 373.037 436.613 368.912C436.613 364.812 437.871 361.456 440.349 358.954C442.827 356.441 446.136 355.171 450.165 355.171C454.145 355.171 457.38 356.441 459.81 358.954C462.239 361.468 463.46 364.812 463.46 368.912C463.46 373.049 462.227 376.417 459.81 378.919C457.38 381.433 454.108 382.702 450.067 382.702ZM450.165 355.733C446.282 355.733 443.12 356.953 440.752 359.345C438.384 361.737 437.187 364.958 437.187 368.912C437.187 372.89 438.371 376.124 440.703 378.528C443.035 380.92 446.185 382.14 450.067 382.14C453.949 382.14 457.087 380.92 459.407 378.528C461.726 376.124 462.898 372.89 462.898 368.912C462.898 364.971 461.726 361.749 459.407 359.345C457.087 356.953 453.974 355.733 450.165 355.733ZM450.067 377.43C448.041 377.43 446.441 376.661 445.306 375.148C444.183 373.659 443.621 371.56 443.621 368.912C443.621 366.325 444.183 364.263 445.306 362.774C446.441 361.261 448.016 360.492 449.969 360.492C451.996 360.492 453.608 361.249 454.755 362.75C455.891 364.226 456.464 366.276 456.464 368.863C456.464 371.511 455.903 373.61 454.804 375.123C453.681 376.649 452.094 377.43 450.067 377.43ZM449.969 361.065C448.175 361.065 446.795 361.737 445.758 363.116C444.72 364.507 444.183 366.459 444.183 368.912C444.183 371.438 444.708 373.415 445.758 374.806C446.795 376.185 448.199 376.856 450.067 376.856C451.923 376.856 453.327 376.173 454.352 374.782C455.378 373.378 455.903 371.389 455.903 368.863C455.903 366.41 455.366 364.47 454.316 363.091C453.241 361.724 451.825 361.065 449.969 361.065Z" fill="#007AA5"/>
<path d="M491.637 356.184V381.628H484.983V378.028C483.006 380.92 480.247 382.372 476.694 382.372C473.898 382.372 471.725 381.603 470.162 380.078C468.6 378.552 467.818 376.295 467.818 373.305V356.196H474.875V370.73C474.875 371.682 474.911 372.451 474.997 373.024C475.082 373.598 475.253 374.184 475.51 374.769C475.778 375.355 476.206 375.794 476.816 376.075C477.426 376.356 478.208 376.49 479.16 376.49C482.847 376.49 484.678 374.086 484.678 369.29V356.172H491.637V356.184Z" fill="#EE0033"/>
<path d="M476.694 382.653C473.837 382.653 471.566 381.859 469.955 380.273C468.343 378.699 467.525 376.344 467.525 373.293V355.903H475.143V370.73C475.143 371.67 475.18 372.426 475.266 372.988C475.339 373.537 475.51 374.098 475.766 374.659C475.998 375.196 476.389 375.575 476.926 375.819C477.487 376.075 478.244 376.209 479.148 376.209C482.676 376.209 484.385 373.952 484.385 369.29V355.891H491.906V381.896H484.678V378.882C482.713 381.396 480.027 382.653 476.694 382.653ZM468.099 356.477V373.293C468.099 376.185 468.856 378.406 470.358 379.87C471.859 381.335 473.984 382.079 476.694 382.079C480.124 382.079 482.835 380.663 484.739 377.869L485.264 377.1V381.335H491.356V356.465H484.971V369.29C484.971 374.257 483.018 376.771 479.16 376.771C478.171 376.771 477.341 376.624 476.694 376.331C476.022 376.026 475.534 375.538 475.241 374.879C474.973 374.269 474.789 373.647 474.704 373.049C474.618 372.463 474.582 371.682 474.582 370.718V356.465H468.099V356.477Z" fill="#007AA5"/>
<path d="M520.986 381.628H513.881V366.789C513.881 364.983 513.588 363.604 512.99 362.676C512.404 361.737 511.244 361.273 509.535 361.273C505.848 361.273 504.016 363.506 504.016 367.972V381.628H497.058V356.184H503.711V359.735C505.811 356.904 508.631 355.501 512.147 355.501C514.882 355.501 517.031 356.294 518.606 357.868C520.181 359.442 520.974 361.7 520.974 364.616V381.628H520.986Z" fill="#EE0033"/>
<path d="M521.267 381.908H513.6V366.789C513.6 365.043 513.319 363.713 512.758 362.823C512.221 361.98 511.146 361.553 509.547 361.553C506.019 361.553 504.309 363.652 504.309 367.972V381.908H496.789V355.903H504.016V358.918C506.104 356.452 508.851 355.208 512.172 355.208C514.968 355.208 517.214 356.038 518.838 357.661C520.461 359.284 521.292 361.627 521.292 364.616V381.908H521.267ZM514.174 381.347H520.706V364.629C520.706 361.797 519.936 359.589 518.423 358.075C516.909 356.562 514.797 355.794 512.16 355.794C508.753 355.794 505.994 357.185 503.955 359.918L503.443 360.614V356.489H497.351V381.347H503.736V367.972C503.736 363.335 505.689 360.98 509.547 360.98C511.354 360.98 512.599 361.492 513.246 362.517C513.869 363.494 514.174 364.934 514.174 366.789V381.347Z" fill="#007AA5"/>
<path d="M551.068 381.628H544.463V378.369C542.791 381.005 540.227 382.311 536.772 382.311C533.256 382.311 530.448 381.091 528.36 378.638C526.273 376.185 525.223 372.915 525.223 368.802C525.223 364.787 526.236 361.578 528.25 359.137C530.277 356.709 532.975 355.489 536.369 355.489C537.944 355.489 539.433 355.818 540.837 356.477C542.229 357.136 543.328 358.088 544.121 359.333V346.519H551.08V381.628H551.068ZM544.366 368.863C544.366 366.398 543.828 364.47 542.766 363.091C541.692 361.712 540.215 361.017 538.298 361.017C536.393 361.017 534.916 361.712 533.854 363.091C532.804 364.47 532.279 366.374 532.279 368.814C532.279 371.279 532.816 373.207 533.878 374.611C534.941 376.014 536.418 376.71 538.298 376.71C540.239 376.71 541.729 376.026 542.791 374.66C543.841 373.293 544.366 371.353 544.366 368.863Z" fill="#EE0033"/>
<path d="M536.772 382.604C533.183 382.604 530.277 381.335 528.141 378.833C526.016 376.344 524.942 372.976 524.942 368.814C524.942 364.751 525.98 361.444 528.043 358.966C530.118 356.477 532.914 355.22 536.381 355.22C537.993 355.22 539.531 355.562 540.972 356.233C542.132 356.782 543.084 357.526 543.841 358.466V346.251H551.361V381.92H544.183V379.272C542.461 381.481 539.971 382.604 536.772 382.604ZM536.381 355.781C533.097 355.781 530.448 356.977 528.482 359.332C526.517 361.7 525.516 364.897 525.516 368.814C525.516 372.829 526.541 376.087 528.58 378.467C530.607 380.834 533.354 382.042 536.772 382.042C540.105 382.042 542.608 380.761 544.231 378.235L544.756 377.405V381.347H550.8V346.812H544.415V360.333L543.89 359.503C543.133 358.307 542.071 357.38 540.728 356.745C539.36 356.111 537.907 355.781 536.381 355.781ZM538.298 376.978C536.333 376.978 534.782 376.234 533.659 374.769C532.56 373.329 531.998 371.316 531.998 368.802C531.998 366.313 532.548 364.336 533.634 362.908C534.733 361.456 536.308 360.724 538.298 360.724C540.288 360.724 541.863 361.456 542.986 362.908C544.085 364.336 544.647 366.337 544.647 368.851C544.647 371.401 544.097 373.415 543.011 374.818C541.912 376.258 540.325 376.978 538.298 376.978ZM538.298 361.309C536.467 361.309 535.087 361.956 534.086 363.262C533.073 364.58 532.56 366.447 532.56 368.802C532.56 371.194 533.085 373.085 534.111 374.428C535.136 375.758 536.503 376.417 538.298 376.417C540.166 376.417 541.558 375.782 542.559 374.477C543.572 373.171 544.073 371.279 544.073 368.863C544.073 366.471 543.548 364.592 542.534 363.274C541.521 361.944 540.129 361.309 538.298 361.309Z" fill="#007AA5"/>
<path d="M184.959 574.596H149.542C114.101 574.596 85.0934 545.613 85.0934 510.175C85.0934 474.75 114.089 445.755 149.542 445.755H184.959V574.596Z" fill="#F56685"/>
<path d="M184.959 574.596C202.416 574.596 216.567 545.754 216.567 510.175C216.567 474.597 202.416 445.755 184.959 445.755C167.503 445.755 153.351 474.597 153.351 510.175C153.351 545.754 167.503 574.596 184.959 574.596Z" fill="#222F3E"/>
<path d="M184.959 566.383C200.191 566.383 212.538 541.218 212.538 510.175C212.538 479.133 200.191 453.968 184.959 453.968C169.728 453.968 157.38 479.133 157.38 510.175C157.38 541.218 169.728 566.383 184.959 566.383Z" fill="#576574"/>
<path d="M187.083 498.607C189.699 498.607 191.82 495.23 191.82 491.065C191.82 486.9 189.699 483.524 187.083 483.524C184.467 483.524 182.346 486.9 182.346 491.065C182.346 495.23 184.467 498.607 187.083 498.607Z" fill="#222F3E"/>
<path d="M187.083 540.72C189.699 540.72 191.82 537.343 191.82 533.178C191.82 529.013 189.699 525.637 187.083 525.637C184.467 525.637 182.346 529.013 182.346 533.178C182.346 537.343 184.467 540.72 187.083 540.72Z" fill="#222F3E"/>
<path d="M495.678 329.691L503.052 332.205L505.665 322.968L497.277 321.113L495.678 329.691Z" fill="#FD9795"/>
<path d="M498.193 322.016C497.375 318.916 496.228 315.487 493.896 315.206C492.992 315.097 488.658 317.159 488.048 316.475L484.642 312.631C484.19 312.119 483.421 312.009 482.835 312.375C482.212 312.778 482.005 313.583 482.359 314.23L485.96 320.722C481.736 320.222 477.878 319.783 477.671 319.795C477.341 319.807 471.139 317.537 467.623 316.244C466.475 315.817 465.254 317.012 465.254 318.245C465.254 318.953 465.682 319.599 466.341 319.868L478.879 325.103L498.181 327.837C498.193 327.861 499.292 326.189 498.193 322.016Z" fill="#FD9795"/>
<path d="M496.679 324.334C496.679 324.334 493.249 319.71 485.96 323.078L478.33 322.309L472.665 316.622C472.128 316.158 471.347 316.146 470.81 316.598C470.199 317.098 470.101 317.989 470.59 318.611L476.938 326.677L495.678 329.716L497.375 327.324L496.679 324.334Z" fill="#FD9795"/>
<path d="M551.776 561.587C551.63 561.587 551.495 561.489 551.446 561.343C550.58 558.5 548.627 558.463 548.614 558.463C548.431 558.463 548.272 558.304 548.272 558.121C548.272 557.938 548.431 557.78 548.614 557.78C548.712 557.78 551.08 557.841 552.094 561.148C552.155 561.331 552.045 561.514 551.862 561.575C551.849 561.587 551.813 561.587 551.776 561.587Z" fill="black"/>
<path d="M548.614 562.429C548.468 562.429 548.334 562.331 548.285 562.185C547.418 559.342 545.464 559.305 545.452 559.305C545.269 559.305 545.11 559.146 545.11 558.963C545.11 558.78 545.269 558.622 545.452 558.622C545.55 558.622 547.918 558.683 548.932 561.99C548.993 562.173 548.883 562.356 548.7 562.417C548.688 562.417 548.651 562.429 548.614 562.429Z" fill="black"/>
<path d="M544.561 563.613C544.414 563.613 544.28 563.515 544.231 563.369C543.377 560.562 541.472 560.489 541.399 560.489C541.216 560.489 541.057 560.33 541.057 560.147C541.057 559.964 541.216 559.805 541.399 559.805C541.497 559.805 543.865 559.866 544.878 563.173C544.939 563.356 544.829 563.54 544.646 563.601C544.634 563.613 544.597 563.613 544.561 563.613Z" fill="black"/>
<path d="M459.932 355.574L452.069 351.266C453.461 348.728 486.546 289.116 527.713 286.858C569.235 284.601 601.563 345.275 602.918 347.862L594.97 352.023C594.665 351.449 565.01 295.754 529.996 295.754C529.398 295.754 528.8 295.767 528.202 295.803C491.967 297.805 460.249 355.001 459.932 355.574Z" fill="#222F3E"/>
<path d="M468.404 439.849L483.677 413.551C498.962 387.241 489.916 353.219 463.594 337.94C437.273 322.662 403.235 331.705 387.95 358.015L372.677 384.312L468.404 439.849Z" fill="#F56685"/>
<path d="M468.412 439.823C475.937 426.865 460.607 403.928 434.172 388.592C407.737 373.255 380.207 371.327 372.683 384.285C365.159 397.243 380.489 420.181 406.924 435.517C433.359 450.853 460.888 452.781 468.412 439.823Z" fill="#222F3E"/>
<path d="M462.309 436.283C468.876 424.974 455.501 404.96 432.437 391.579C409.373 378.198 385.353 376.518 378.786 387.826C372.22 399.135 385.594 419.149 408.658 432.53C431.722 445.911 455.743 447.591 462.309 436.283Z" fill="#576574"/>
<path d="M410.047 410.598L392.797 440.3C391.075 443.265 387.242 444.278 384.275 442.558L383.64 442.192C380.674 440.471 379.661 436.639 381.382 433.674L398.632 403.972C400.354 401.006 404.187 399.993 407.154 401.714L407.789 402.08C410.743 403.801 411.769 407.632 410.047 410.598Z" fill="#222F3E"/>
<path d="M441.338 428.756L424.087 458.458C422.366 461.424 418.532 462.437 415.566 460.716L414.931 460.35C411.964 458.629 410.951 454.798 412.672 451.832L429.923 422.13C431.644 419.164 435.478 418.152 438.445 419.872L439.079 420.238C442.034 421.959 443.059 425.791 441.338 428.756Z" fill="#222F3E"/>
<path d="M616.738 554.936L618.032 562.087L633.073 561.709L630.863 551.702L616.738 554.936Z" fill="#FD9795"/>
<path d="M532.23 573.815C532.23 573.815 531.791 567.908 532.072 566.847C532.34 565.809 533.305 564.418 536.04 562.99C536.04 562.99 548.199 559.805 556.965 559.146C556.965 559.146 558.637 553.753 559.346 552.728C559.346 552.728 568.722 555.681 575.986 553.057C575.986 553.057 576.205 555.412 576.205 558.024C576.205 558.622 576.193 559.232 576.169 559.83C576.12 561.258 576.022 562.832 575.925 564.198C575.9 564.589 575.864 564.955 575.839 565.309C575.729 566.663 574.716 572.948 573.422 573.082L532.23 573.815Z" fill="#FD9795"/>
<path d="M591.942 374.477L579.026 553.753C579.026 553.753 566.39 557.926 555.952 553.838C555.317 553.594 554.694 553.313 554.084 553.008L561.25 378.833L561.506 372.671L591.942 374.477Z" fill="#579ADE"/>
<path d="M634.843 553.045C634.843 553.045 625.577 557.67 615.895 557.011C613.942 556.889 611.964 556.535 610.06 555.888L590.599 420.019L590.587 419.97L584.458 377.125L619.155 375.294L634.843 553.045Z" fill="#579ADE"/>
<path d="M566.939 315.499L554.413 345.885C552.423 349.985 548.077 348.899 546.331 348.362L500.83 331.449L503.174 322.418L542.058 330.485L563.264 276.388C563.582 275.607 569.173 274.094 569.234 274.936L566.939 315.499Z" fill="#FD9795"/>
<path d="M540.63 324.908L560.786 335.659C560.786 335.659 583.799 291.081 583.933 285.894C584.068 280.708 564.265 274.106 564.265 274.106C564.265 274.106 554.755 291.74 540.63 324.908Z" fill="#00CACA"/>
<path d="M558.796 371.926C558.796 371.926 591.564 381.884 619.143 375.294C619.143 375.294 615.395 346.361 617.617 334.475C619.839 322.577 620.046 277.999 618.862 265.405C617.69 252.812 577.487 260.402 565.816 272.007C557.148 280.611 563.912 315.109 558.796 371.926Z" fill="#00CACA"/>
<path d="M640.972 376.893L570.126 340.369C569.198 339.893 568.832 338.746 569.308 337.819L591.271 295.242C591.747 294.315 592.895 293.949 593.822 294.425L664.668 330.948C665.596 331.424 665.963 332.571 665.486 333.499L643.523 376.075C643.047 377.003 641.9 377.369 640.972 376.893Z" fill="#222F3E"/>
<path d="M617.175 351.645C618.046 349.955 615.92 347.126 612.427 345.325C608.933 343.524 605.394 343.433 604.522 345.122C603.651 346.811 605.777 349.641 609.27 351.442C612.764 353.243 616.303 353.334 617.175 351.645Z" fill="white"/>
<path d="M597.863 263.233L599.304 262.245L597.863 245.478L585.313 250.664L584.8 264.026C585.582 265.711 588.683 269.164 597.863 263.233Z" fill="#FD6D6F"/>
<path d="M600.439 236.765C600.415 239.486 600.391 242.024 600.366 243.977C600.342 246.356 598.852 248.455 596.618 249.273L584.617 253.666C583.824 253.959 582.981 254.068 582.151 253.995L580.088 253.812C577.024 253.532 574.716 250.883 574.887 247.808L576.45 219.046L576.828 212.175C576.828 212.175 583.03 210.857 587.926 210.687C592.895 210.516 600.012 212.505 600.342 218.13C600.354 218.374 600.366 218.655 600.378 218.96C600.5 222.524 600.476 230.199 600.439 236.765Z" fill="#FD9795"/>
<path opacity="0.2" d="M600.44 236.765C597.168 241.841 600.318 231.176 597.717 226.636C595.117 222.096 598.755 216.263 591.234 217.301C583.714 218.338 579.05 219.009 577.341 218.985C577.341 218.985 576.975 219.058 576.438 219.046L576.816 212.175C576.816 212.175 583.018 210.857 587.914 210.687C592.883 210.516 600 212.505 600.33 218.13C600.342 218.374 600.354 218.655 600.366 218.96C600.501 222.524 600.476 230.199 600.44 236.765Z" fill="#010101"/>
<path d="M582.347 228.625C582.066 229.724 581.687 230.785 581.272 231.822C580.857 232.86 580.418 233.885 579.941 234.898L579.575 235.654L579.392 236.033C579.355 236.106 579.343 236.142 579.319 236.191L579.282 236.264C579.27 236.289 579.27 236.313 579.258 236.338C579.197 236.533 579.184 236.728 579.221 236.936C579.258 237.131 579.343 237.338 579.477 237.509C579.734 237.851 580.161 238.083 580.65 238.07C581.199 238.046 581.773 238.022 582.334 238.034C582.066 238.131 581.797 238.229 581.529 238.327C581.26 238.412 581.004 238.498 580.711 238.583C580.405 238.668 580.064 238.668 579.734 238.571C579.404 238.485 579.099 238.302 578.855 238.058C578.611 237.814 578.415 237.509 578.318 237.167C578.208 236.826 578.208 236.46 578.281 236.106C578.293 236.057 578.293 236.02 578.305 235.971L578.354 235.849C578.391 235.764 578.415 235.679 578.452 235.618L578.623 235.239L578.977 234.483C579.453 233.47 579.966 232.481 580.515 231.505C581.089 230.505 581.663 229.54 582.347 228.625Z" fill="#F86D6F"/>
<path d="M578.721 217.74C578.721 217.74 573.166 218.777 573.422 212.041C573.678 205.305 578.354 198.435 582.884 203.743C587.425 209.052 594.824 202.706 600.452 206.208C606.092 209.711 603.699 231.688 600.415 236.765C597.143 241.841 601.673 229.919 599.084 225.391C596.496 220.852 600.122 215.019 592.602 216.056C585.093 217.093 580.43 217.765 578.721 217.74Z" fill="#010101"/>
<path d="M598.73 232.347C599.957 232.347 600.952 230.014 600.952 227.137C600.952 224.259 599.957 221.926 598.73 221.926C597.503 221.926 596.508 224.259 596.508 227.137C596.508 230.014 597.503 232.347 598.73 232.347Z" fill="#FB9593"/>
<path d="M599.292 206.159C599.292 206.159 600.867 203.914 602.686 203.999C602.686 203.999 600.952 205.647 601.648 208.319L599.292 206.159Z" fill="#010101"/>
<path d="M602.307 219.546C602.307 219.546 604.017 218.155 605.396 218.631C605.396 218.631 603.699 219.522 603.638 221.731L602.307 219.546Z" fill="#010101"/>
<path d="M599.682 205.805C599.682 205.805 600.061 204.61 599.194 203.523C599.194 203.523 599.414 205.305 598.401 205.757L599.682 205.805Z" fill="#010101"/>
<path d="M585.789 207.245C585.789 207.245 584.227 205.781 584.617 203.438C584.617 203.438 585.765 206.281 587.669 206.098L585.789 207.245Z" fill="#010101"/>
<path d="M576.315 206.769C576.315 206.769 575.192 204.414 572.335 204.011C572.335 204.011 574.777 206.135 574.301 208.514L576.315 206.769Z" fill="#010101"/>
<path d="M608.583 368.497L603.601 375.343L613.002 379.285L616.188 375.575L608.583 368.497Z" fill="#FD9795"/>
<path d="M613.002 379.285C613.002 379.285 612.745 386.094 611.561 387.278C610.377 388.461 599.121 382.604 599.035 379.077C598.95 375.55 602.307 376.307 604.468 374.965C606.641 373.635 613.002 379.285 613.002 379.285Z" fill="#FD9795"/>
<path d="M564.595 381.628L555.964 553.838C555.329 553.594 554.706 553.313 554.096 553.008L561.262 378.833L564.595 381.628Z" fill="#A8D3FF"/>
<path d="M650.922 325.567L616.188 375.575L608.021 369.266L633.976 321.674C633.976 321.674 626.248 308.995 615.309 297.048C604.383 285.101 600.525 278.67 605.396 266.858C606.458 264.271 607.667 262.586 608.9 261.549L608.912 261.537C609.315 261.195 609.718 260.927 610.109 260.719H610.121C614.125 258.584 618.044 262.147 618.044 262.147L652.13 319.197C653.034 320.661 651.886 324.127 650.922 325.567Z" fill="#FD9795"/>
<path d="M597.155 381.628C597.155 381.628 599.756 386.558 607.545 388.364C607.545 388.364 598.584 388.095 597.155 381.628Z" fill="#A8D3FF"/>
<path d="M603.601 389.828C603.601 389.828 608.802 392.049 613.002 390.939C613.002 390.939 608.009 393.721 603.601 389.828Z" fill="#A8D3FF"/>
<path d="M615.883 557.011C613.93 556.889 611.952 556.535 610.048 555.888L590.587 420.019L615.883 557.011Z" fill="#A8D3FF"/>
<path d="M612.208 259.597C612.208 259.597 617.299 259.548 619.021 261.708C620.742 263.868 645.513 304.821 645.513 304.821C645.513 304.821 637.48 315.902 627.359 320.002C627.359 320.002 607.264 293.802 603.308 280.977C599.365 268.151 605.86 260.378 612.208 259.597Z" fill="#00CACA"/>
<path d="M557.868 557.755C562.862 560.476 575.241 557.523 577.378 557.011C579.514 556.498 575.693 571.593 575.046 574.12L531.974 574.449C531.974 574.449 531.034 566.798 531.62 565.016C532.206 563.234 552.875 555.034 557.868 557.755Z" fill="#68A0D9"/>
<path d="M531.925 574.498L531.913 574.449C531.876 574.132 530.973 566.761 531.559 564.992C531.803 564.235 535.258 562.575 538.554 561.27C544.122 559.061 554.462 555.827 557.893 557.694C562.434 560.171 573.019 557.999 577.366 556.938C577.524 556.901 577.659 556.938 577.768 557.047C579.026 558.329 576.047 570.434 575.107 574.12L575.095 574.169H575.046L531.925 574.498ZM554.938 557.267C550.873 557.267 544.329 559.122 538.603 561.38C534.721 562.917 531.876 564.418 531.669 565.028C531.119 566.7 531.937 573.705 532.023 574.376L575.009 574.059C576.938 566.517 578.66 558.121 577.695 557.145C577.622 557.06 577.524 557.035 577.402 557.072C573.044 558.121 562.434 560.306 557.844 557.816C557.16 557.438 556.159 557.267 554.938 557.267Z" fill="#406285"/>
<path d="M575.314 574.449H532.108C531.864 574.449 531.657 574.18 531.608 573.814L531.205 570.337C531.156 569.873 531.388 569.446 531.706 569.433L575.644 569.153C575.949 569.153 576.181 569.556 576.145 570.019L575.827 573.778C575.791 574.156 575.571 574.449 575.314 574.449Z" fill="white"/>
<path d="M575.314 574.534H532.096C531.803 574.534 531.559 574.229 531.51 573.814L531.107 570.336C531.071 570.019 531.156 569.714 531.327 569.519C531.437 569.397 531.559 569.336 531.693 569.336L575.632 569.055C575.766 569.055 575.888 569.116 575.998 569.226C576.169 569.409 576.254 569.714 576.23 570.019L575.913 573.778C575.876 574.217 575.632 574.534 575.314 574.534ZM575.632 569.25L531.693 569.531C531.596 569.531 531.51 569.592 531.461 569.653C531.327 569.812 531.254 570.068 531.29 570.324L531.693 573.802C531.73 574.119 531.901 574.351 532.096 574.351H575.314C575.522 574.351 575.693 574.095 575.717 573.765L576.035 570.007C576.059 569.751 575.986 569.507 575.852 569.36C575.815 569.311 575.729 569.25 575.632 569.25Z" fill="black"/>
<path d="M555.121 557.206C555.121 557.206 556.904 560.696 565.23 560.501C573.556 560.306 578.024 558.524 578.024 558.524C578.024 558.524 578.647 556.706 577.573 556.779C576.498 556.84 567.721 559.561 562.141 558.268C556.574 556.986 554.694 554.338 555.121 557.206Z" fill="white"/>
<path d="M564.583 560.611C560.652 560.611 558.308 559.757 557.002 559.012C555.512 558.158 555.048 557.292 555.036 557.255L555.024 557.231C554.914 556.474 554.963 556.096 555.182 555.925C555.5 555.681 556.098 555.949 557.172 556.425C558.271 556.926 559.944 557.67 562.178 558.182C566.561 559.208 572.921 557.731 575.973 557.023C576.804 556.828 577.353 556.706 577.585 556.694C577.829 556.681 578.024 556.755 578.147 556.913C578.513 557.401 578.147 558.512 578.122 558.561L578.11 558.597L578.073 558.61C578.024 558.622 573.495 560.403 565.242 560.599C565.01 560.611 564.791 560.611 564.583 560.611ZM555.207 557.182C555.341 557.414 557.307 560.599 565.23 560.416C573.031 560.233 577.487 558.634 577.951 558.463C578.061 558.134 578.232 557.353 577.988 557.035C577.902 556.926 577.768 556.877 577.585 556.889C577.365 556.901 576.791 557.035 576.01 557.218C573.69 557.755 569.479 558.732 565.645 558.732C564.412 558.732 563.216 558.634 562.129 558.378C559.883 557.853 558.21 557.096 557.099 556.608C556.159 556.181 555.537 555.9 555.305 556.083C555.146 556.181 555.109 556.535 555.207 557.182Z" fill="black"/>
<path d="M638.347 574.449H613.197L613.429 568.274C613.722 565.175 614.552 562.502 616.75 560.599C618.801 558.829 622.122 558.768 625.015 558.768H626.273C628.482 558.768 630.79 558.219 632.572 559.305C635.344 561.001 637.138 563.967 637.724 567.359L638.347 574.449Z" fill="#68A0D9"/>
<path d="M638.408 574.498H613.136L613.368 568.262C613.71 564.626 614.736 562.246 616.701 560.55C618.838 558.695 622.403 558.695 625.003 558.695H626.26C626.822 558.695 627.396 558.658 627.945 558.622C629.642 558.512 631.242 558.414 632.597 559.244C635.283 560.891 637.175 563.845 637.785 567.335L638.408 574.498ZM613.246 574.388H638.274L637.651 567.359C637.053 563.906 635.173 560.977 632.523 559.354C631.205 558.548 629.618 558.646 627.945 558.756C627.396 558.792 626.81 558.829 626.248 558.829H624.991C622.403 558.829 618.874 558.829 616.762 560.647C614.821 562.331 613.796 564.687 613.466 568.287L613.246 574.388Z" fill="#406285"/>
<path d="M637.932 574.449H612.904C612.331 574.449 611.879 573.949 611.928 573.375L612.257 570.044C612.306 569.543 612.733 569.165 613.234 569.165H637.48C637.969 569.165 638.384 569.531 638.445 570.007L638.896 573.338C638.982 573.924 638.53 574.449 637.932 574.449Z" fill="white"/>
<path d="M637.932 574.534H612.904C612.599 574.534 612.318 574.4 612.111 574.18C611.903 573.961 611.806 573.656 611.842 573.351L612.172 570.019C612.221 569.47 612.685 569.055 613.234 569.055H637.48C638.017 569.055 638.469 569.458 638.542 569.983L638.994 573.314C639.031 573.619 638.945 573.924 638.738 574.168C638.542 574.4 638.249 574.534 637.932 574.534ZM613.234 569.25C612.782 569.25 612.392 569.592 612.355 570.044L612.025 573.375C612.001 573.619 612.086 573.875 612.245 574.058C612.416 574.241 612.648 574.351 612.904 574.351H637.932C638.188 574.351 638.432 574.241 638.603 574.046C638.774 573.851 638.847 573.595 638.811 573.351L638.359 570.019C638.298 569.58 637.92 569.25 637.48 569.25H613.234Z" fill="black"/>
<path d="M615.883 559.024C616.811 557.06 628.165 556.694 633.061 557.829C637.956 558.963 635.148 560.733 634.428 560.806C633.708 560.879 632.865 558.866 625.577 559.805C618.288 560.745 614.662 561.636 615.883 559.024Z" fill="white"/>
<path d="M634.404 560.892C634.221 560.892 634.05 560.794 633.793 560.647C632.939 560.172 631.156 559.171 625.601 559.891C624.588 560.025 623.611 560.159 622.769 560.269C618.74 560.818 616.323 561.16 615.712 560.342C615.493 560.037 615.517 559.598 615.81 558.976C616.787 556.889 628.251 556.596 633.097 557.731C635.063 558.182 636.04 558.793 635.991 559.549C635.942 560.281 634.892 560.855 634.452 560.892C634.428 560.892 634.416 560.892 634.404 560.892ZM629.093 559.452C632.023 559.452 633.219 560.111 633.879 560.489C634.123 560.623 634.294 560.721 634.428 560.708C634.819 560.672 635.759 560.135 635.795 559.537C635.832 558.915 634.855 558.341 633.048 557.914C627.909 556.73 616.848 557.206 615.969 559.061C615.712 559.61 615.676 559.989 615.847 560.233C616.384 560.965 618.899 560.611 622.72 560.086C623.575 559.964 624.539 559.83 625.552 559.708C626.956 559.525 628.116 559.452 629.093 559.452Z" fill="black"/>
<path d="M630.18 563.234C630.143 563.234 630.094 563.222 630.057 563.21C626.065 561.623 620.217 563.21 620.156 563.222C619.973 563.271 619.79 563.161 619.741 562.978C619.692 562.795 619.802 562.612 619.985 562.563C620.23 562.49 626.114 560.916 630.314 562.575C630.485 562.649 630.57 562.844 630.509 563.015C630.436 563.149 630.314 563.234 630.18 563.234Z" fill="black"/>
<path d="M630.179 566.065C630.143 566.065 630.118 566.065 630.082 566.053C624.551 564.357 620.242 566.029 620.193 566.041C620.022 566.114 619.814 566.029 619.753 565.846C619.68 565.675 619.766 565.467 619.949 565.406C620.132 565.333 624.539 563.637 630.289 565.394C630.472 565.455 630.57 565.638 630.521 565.821C630.46 565.968 630.326 566.065 630.179 566.065Z" fill="black"/>
<path d="M492.65 313.852L489.22 312.094C489.073 312.021 488.939 311.911 488.805 311.802C488.341 311.435 487.694 311.399 487.181 311.728C486.558 312.131 486.351 312.936 486.705 313.583L489.562 316.451C489.903 316.792 490.367 316.976 490.843 316.976C498.608 316.988 493.932 314.84 493.004 314.071C492.907 313.998 492.785 313.925 492.65 313.852Z" fill="#FD9795"/>
</g>
<defs>
<clipPath id="clip0_106_126">
<rect width="689" height="578" fill="white"/>
</clipPath>
<clipPath id="clip1_106_126">
<rect width="309" height="124" fill="white" transform="translate(200 205)"/>
</clipPath>
</defs>
</svg>
