<svg width="25" height="25" viewBox="0 0 25 25" fill="none" xmlns="http://www.w3.org/2000/svg">
<path fill-rule="evenodd" clip-rule="evenodd" d="M12.5 6.25C12.7072 6.25 12.9059 6.33231 13.0524 6.47882C13.1989 6.62534 13.2812 6.82405 13.2812 7.03125V8.02187L14.1391 7.52656C14.2279 7.47445 14.3263 7.44044 14.4283 7.42649C14.5304 7.41253 14.6343 7.4189 14.7339 7.44524C14.8335 7.47157 14.9269 7.51735 15.0087 7.57993C15.0906 7.64252 15.1592 7.72067 15.2108 7.8099C15.2623 7.89913 15.2956 7.99766 15.3089 8.09984C15.3222 8.20201 15.3151 8.3058 15.2881 8.40523C15.2611 8.50466 15.2147 8.59777 15.1516 8.6792C15.0885 8.76063 15.0099 8.82876 14.9203 8.87969L14.0625 9.375L14.9203 9.87031C15.0099 9.92124 15.0885 9.98937 15.1516 10.0708C15.2147 10.1522 15.2611 10.2453 15.2881 10.3448C15.3151 10.4442 15.3222 10.548 15.3089 10.6502C15.2956 10.7523 15.2623 10.8509 15.2108 10.9401C15.1592 11.0293 15.0906 11.1075 15.0087 11.1701C14.9269 11.2327 14.8335 11.2784 14.7339 11.3048C14.6343 11.3311 14.5304 11.3375 14.4283 11.3235C14.3263 11.3096 14.2279 11.2755 14.1391 11.2234L13.2812 10.7281V11.7188C13.2812 11.926 13.1989 12.1247 13.0524 12.2712C12.9059 12.4177 12.7072 12.5 12.5 12.5C12.2928 12.5 12.0941 12.4177 11.9476 12.2712C11.8011 12.1247 11.7188 11.926 11.7188 11.7188V10.7281L10.8609 11.2234C10.7721 11.2755 10.6737 11.3096 10.5717 11.3235C10.4696 11.3375 10.3657 11.3311 10.2661 11.3048C10.1665 11.2784 10.0731 11.2327 9.99127 11.1701C9.90942 11.1075 9.84076 11.0293 9.78925 10.9401C9.73773 10.8509 9.70437 10.7523 9.69109 10.6502C9.67781 10.548 9.68487 10.4442 9.71187 10.3448C9.73886 10.2453 9.78526 10.1522 9.84839 10.0708C9.91151 9.98937 9.99012 9.92124 10.0797 9.87031L10.9375 9.375L10.0797 8.87969C9.90171 8.77535 9.77223 8.60485 9.7195 8.40541C9.66677 8.20596 9.69507 7.99374 9.79822 7.81508C9.90138 7.63642 10.071 7.50581 10.2701 7.45176C10.4692 7.39771 10.6816 7.4246 10.8609 7.52656L11.7188 8.02187V7.03125C11.7188 6.82405 11.8011 6.62534 11.9476 6.47882C12.0941 6.33231 12.2928 6.25 12.5 6.25ZM7.8125 14.8438C7.8125 14.6365 7.89481 14.4378 8.04132 14.2913C8.18784 14.1448 8.38655 14.0625 8.59375 14.0625H16.4062C16.6135 14.0625 16.8122 14.1448 16.9587 14.2913C17.1052 14.4378 17.1875 14.6365 17.1875 14.8438C17.1875 15.051 17.1052 15.2497 16.9587 15.3962C16.8122 15.5427 16.6135 15.625 16.4062 15.625H8.59375C8.38655 15.625 8.18784 15.5427 8.04132 15.3962C7.89481 15.2497 7.8125 15.051 7.8125 14.8438ZM7.8125 17.9688C7.8125 17.7615 7.89481 17.5628 8.04132 17.4163C8.18784 17.2698 8.38655 17.1875 8.59375 17.1875H16.4062C16.6135 17.1875 16.8122 17.2698 16.9587 17.4163C17.1052 17.5628 17.1875 17.7615 17.1875 17.9688C17.1875 18.176 17.1052 18.3747 16.9587 18.5212C16.8122 18.6677 16.6135 18.75 16.4062 18.75H8.59375C8.38655 18.75 8.18784 18.6677 8.04132 18.5212C7.89481 18.3747 7.8125 18.176 7.8125 17.9688Z" fill="black"/>
<path d="M4.6875 0H20.3125C21.1413 0 21.9362 0.32924 22.5222 0.915291C23.1083 1.50134 23.4375 2.2962 23.4375 3.125V21.875C23.4375 22.7038 23.1083 23.4987 22.5222 24.0847C21.9362 24.6708 21.1413 25 20.3125 25H4.6875C3.8587 25 3.06384 24.6708 2.47779 24.0847C1.89174 23.4987 1.5625 22.7038 1.5625 21.875V20.3125H3.125V21.875C3.125 22.2894 3.28962 22.6868 3.58265 22.9799C3.87567 23.2729 4.2731 23.4375 4.6875 23.4375H20.3125C20.7269 23.4375 21.1243 23.2729 21.4174 22.9799C21.7104 22.6868 21.875 22.2894 21.875 21.875V3.125C21.875 2.7106 21.7104 2.31317 21.4174 2.02015C21.1243 1.72712 20.7269 1.5625 20.3125 1.5625H4.6875C4.2731 1.5625 3.87567 1.72712 3.58265 2.02015C3.28962 2.31317 3.125 2.7106 3.125 3.125V4.6875H1.5625V3.125C1.5625 2.2962 1.89174 1.50134 2.47779 0.915291C3.06384 0.32924 3.8587 0 4.6875 0Z" fill="black"/>
<path d="M1.5625 7.8125V7.03125C1.5625 6.82405 1.64481 6.62534 1.79132 6.47882C1.93784 6.33231 2.13655 6.25 2.34375 6.25C2.55095 6.25 2.74966 6.33231 2.89618 6.47882C3.04269 6.62534 3.125 6.82405 3.125 7.03125V7.8125H3.90625C4.11345 7.8125 4.31216 7.89481 4.45868 8.04132C4.60519 8.18784 4.6875 8.38655 4.6875 8.59375C4.6875 8.80095 4.60519 8.99966 4.45868 9.14618C4.31216 9.29269 4.11345 9.375 3.90625 9.375H0.78125C0.57405 9.375 0.375336 9.29269 0.228823 9.14618C0.08231 8.99966 0 8.80095 0 8.59375C0 8.38655 0.08231 8.18784 0.228823 8.04132C0.375336 7.89481 0.57405 7.8125 0.78125 7.8125H1.5625ZM1.5625 12.5V11.7188C1.5625 11.5115 1.64481 11.3128 1.79132 11.1663C1.93784 11.0198 2.13655 10.9375 2.34375 10.9375C2.55095 10.9375 2.74966 11.0198 2.89618 11.1663C3.04269 11.3128 3.125 11.5115 3.125 11.7188V12.5H3.90625C4.11345 12.5 4.31216 12.5823 4.45868 12.7288C4.60519 12.8753 4.6875 13.074 4.6875 13.2812C4.6875 13.4885 4.60519 13.6872 4.45868 13.8337C4.31216 13.9802 4.11345 14.0625 3.90625 14.0625H0.78125C0.57405 14.0625 0.375336 13.9802 0.228823 13.8337C0.08231 13.6872 0 13.4885 0 13.2812C0 13.074 0.08231 12.8753 0.228823 12.7288C0.375336 12.5823 0.57405 12.5 0.78125 12.5H1.5625ZM1.5625 17.1875V16.4062C1.5625 16.199 1.64481 16.0003 1.79132 15.8538C1.93784 15.7073 2.13655 15.625 2.34375 15.625C2.55095 15.625 2.74966 15.7073 2.89618 15.8538C3.04269 16.0003 3.125 16.199 3.125 16.4062V17.1875H3.90625C4.11345 17.1875 4.31216 17.2698 4.45868 17.4163C4.60519 17.5628 4.6875 17.7615 4.6875 17.9688C4.6875 18.176 4.60519 18.3747 4.45868 18.5212C4.31216 18.6677 4.11345 18.75 3.90625 18.75H0.78125C0.57405 18.75 0.375336 18.6677 0.228823 18.5212C0.08231 18.3747 0 18.176 0 17.9688C0 17.7615 0.08231 17.5628 0.228823 17.4163C0.375336 17.2698 0.57405 17.1875 0.78125 17.1875H1.5625Z" fill="black"/>
</svg>
