<svg width="23" height="25" viewBox="0 0 23 25" fill="none" xmlns="http://www.w3.org/2000/svg">
<g clip-path="url(#clip0_5_800)">
<path d="M10.4441 20.4C4.67584 20.4 0 15.8335 0 10.2C0 4.56654 4.67584 2.87465e-06 10.4441 2.87465e-06C12.0657 -0.00118692 13.6653 0.366971 15.1157 1.07523C16.5661 1.78348 17.8274 2.81232 18.7994 4.08H15.9691C14.763 3.0414 13.2757 2.36473 11.6856 2.13119C10.0956 1.89765 8.47026 2.11717 7.00476 2.7634C5.53926 3.40963 4.29583 4.45512 3.42366 5.77441C2.55149 7.09371 2.08765 8.63076 2.08778 10.2011C2.08791 11.7715 2.55202 13.3085 3.42441 14.6276C4.29681 15.9468 5.54042 16.9921 7.00603 17.6381C8.47164 18.284 10.097 18.5033 11.687 18.2695C13.2771 18.0357 14.7642 17.3588 15.9701 16.32H18.8005C17.8284 17.5878 16.5669 18.6167 15.1163 19.325C13.6657 20.0333 12.0659 20.4013 10.4441 20.4ZM17.755 14.28V11.22H9.39972V9.18H17.755V6.12L22.9771 10.2L17.755 14.28Z" fill="#111111"/>
</g>
<defs>
<clipPath id="clip0_5_800">
<rect width="22.9771" height="25" fill="white"/>
</clipPath>
</defs>
</svg>
